<svg xmlns="http://www.w3.org/2000/svg" viewBox="0 0 500 350" width="500" height="350">
  <defs>
    <style type="text/css">
      /* Підключаємо шрифти Google Fonts (за бажанням можна змінити) */
      @import url('https://fonts.googleapis.com/css2?family=Montserrat:wght@700;900&amp;display=swap');
      
      /* 1. КОЛЬОРИ КРИЛ (змініть HEX-коди тут) */
      .wing-blue { fill: #00BFFF; }   /* Небесно-блакитний */
      .wing-yellow { fill: #FFD700; } /* Золото-жовтий */
      
      /* 2. КОЛІР ТЕКСТУ ТА ЛІТЕРИ 'U' */
      /* Якщо фон вашого сайту СВІТЛИЙ, змініть #FFFFFF на #000000 (чорний) */
      .u-main-color { fill: #FFFFFF; } 
      
      /* 3. ШРИФТИ ТА РОЗМІРИ */
      .letter-u { 
        font-family: 'Montserrat', sans-serif; 
        font-weight: 900; /* Надвисока жирність */
        font-size: 140px; 
        text-anchor: middle; 
      }
      .text-upgrade { 
        font-family: 'Montserrat', sans-serif; 
        font-weight: 900; 
        font-size: 42px; 
        text-anchor: middle; 
        letter-spacing: 3px; /* Відступ між літерами */
      }
      .text-circus { 
        font-family: 'Montserrat', sans-serif; 
        font-weight: 700; /* Жирний */
        font-size: 26px; 
        text-anchor: middle; 
        letter-spacing: 1px; 
      }
    </style>
  </defs>

  <g transform="translate(250, 120)">
    
    <g class="wing-left" transform="translate(-60, 0)">
      <path class="wing-blue" d="M0,0 C-30,-20 -60,-30 -90,-35 L-120,-38 C-150,-40 -180,-35 -210,-20 L-190,0 C-160,-10 -130,-15 -100,-10 Z M-10,-10 C-40,-30 -70,-40 -100,-45 L-130,-48 C-160,-50 -190,-45 -220,-30 L-200,-10 C-170,-20 -140,-25 -110,-20 Z M-20,-20 C-50,-40 -80,-50 -110,-55 L-140,-58 C-170,-60 -200,-55 -230,-40 L-210,-20 C-180,-30 -150,-35 -120,-30 Z"/>
      <path class="wing-yellow" d="M0,0 C-20,15 -40,30 -60,40 L-80,50 C-100,60 -120,65 -140,60 L-120,40 C-100,45 -80,40 -60,30 Z M-10,10 C-30,25 -50,40 -70,50 L-90,60 C-110,70 -130,75 -150,70 L-130,50 C-110,55 -90,50 -70,40 Z M-20,20 C-40,35 -60,50 -80,60 L-100,70 C-120,80 -140,85 -160,80 L-140,60 C-120,65 -100,60 -80,50 Z"/>
    </g>

    <g class="wing-right" transform="translate(60, 0) scale(-1, 1)">
      <path class="wing-blue" d="M0,0 C-30,-20 -60,-30 -90,-35 L-120,-38 C-150,-40 -180,-35 -210,-20 L-190,0 C-160,-10 -130,-15 -100,-10 Z M-10,-10 C-40,-30 -70,-40 -100,-45 L-130,-48 C-160,-50 -190,-45 -220,-30 L-200,-10 C-170,-20 -140,-25 -110,-20 Z M-20,-20 C-50,-40 -80,-50 -110,-55 L-140,-58 C-170,-60 -200,-55 -230,-40 L-210,-20 C-180,-30 -150,-35 -120,-30 Z"/>
      <path class="wing-yellow" d="M0,0 C-20,15 -40,30 -60,40 L-80,50 C-100,60 -120,65 -140,60 L-120,40 C-100,45 -80,40 -60,30 Z M-10,10 C-30,25 -50,40 -70,50 L-90,60 C-110,70 -130,75 -150,70 L-130,50 C-110,55 -90,50 -70,40 Z M-20,20 C-40,35 -60,50 -80,60 L-100,70 C-120,80 -140,85 -160,80 L-140,60 C-120,65 -100,60 -80,50 Z"/>
    </g>

    <text x="0" y="50" class="letter-u u-main-color">U</text>
  </g>

  <text x="250" y="260" class="text-upgrade u-main-color">UPGRADE</text>
  <text x="250" y="300" class="text-circus u-main-color">circus studio</text>

</svg>