<svg xmlns="http://www.w3.org/2000/svg" viewBox="0 0 400 300" width="400" height="300">
  <defs>
    <style type="text/css">
      @import url('https://fonts.googleapis.com/css2?family=Montserrat:wght@700;900&amp;display=swap');
      
      /* КОЛЬОРИ: Змінюйте HEX-коди тут */
      .wing-blue { fill: #00BFFF; } /* Синій (UA flag) */
      .wing-yellow { fill: #FFD700; } /* Жовтий (UA flag) */
      
      /* ТЕКСТ ТА ЛІТЕРА 'U': Якщо фон сайту світлий, змініть fill: #FFFFFF на #000000 */
      .letter-u { fill:rgb(14, 6, 6); font-family: 'Montserrat', sans-serif; font-weight: 900; font-size: 120px; text-anchor: middle; }
      .text-upgrade { fill:rgb(10, 4, 4); font-family: 'Montserrat', sans-serif; font-weight: 900; font-size: 36px; text-anchor: middle; letter-spacing: 2px; }
      .text-circus { fill:rgb(11, 7, 7); font-family: 'Montserrat', sans-serif; font-weight: 700; font-size: 24px; text-anchor: middle; letter-spacing: 1px; }
    </style>
  </defs>

  <g transform="translate(200, 100)">
    <g class="wing-left">
      <path class="wing-blue" d="M-50,0 C-110,-20 -150,-10 -170,10 L-140,40 C-120,20 -80,10 -50,0 Z M-60,10 C-120,0 -160,10 -180,30 L-150,60 C-130,40 -90,30 -60,10 Z M-70,20 C-130,10 -170,20 -190,40 L-160,70 C-140,50 -100,40 -70,20 Z"/>
      <path class="wing-yellow" d="M-50,0 C-80,10 -120,20 -140,40 L-110,70 C-90,50 -60,30 -50,0 Z M-60,10 C-90,20 -130,30 -150,50 L-120,80 C-100,60 -70,40 -60,10 Z M-70,20 C-100,30 -140,40 -160,60 L-130,90 C-110,70 -80,50 -70,20 Z"/>
    </g>
    <g class="wing-right">
      <path class="wing-blue" d="M50,0 C110,-20 150,-10 170,10 L140,40 C120,20 80,10 50,0 Z M60,10 C120,0 160,10 180,30 L150,60 C130,40 90,30 60,10 Z M70,20 C130,10 170,20 190,40 L160,70 C140,50 100,40 70,20 Z"/>
      <path class="wing-yellow" d="M50,0 C80,10 120,20 140,40 L110,70 C90,50 60,30 50,0 Z M60,10 C90,20 130,30 150,50 L120,80 C100,60 70,40 60,10 Z M70,20 C100,30 140,40 160,60 L130,90 C110,70 80,50 70,20 Z"/>
    </g>
  </g>

  <text x="200" y="140" class="letter-u">U</text>

  <text x="200" y="210" class="text-upgrade">UPGRADE</text>
  <text x="200" y="250" class="text-circus">CIRCUS STUDIO</text>
</svg>